HIERARCHY
ROOT Hips
{
  OFFSET -243.449 90.0501 -262.018
  CHANNELS 6 Xposition Yposition Zposition Zrotation Xrotation Yrotation
  JOINT ToSpine
  {
    OFFSET -2.69724 7.43032 -0.144315
    CHANNELS 3 Zrotation Xrotation Yrotation
    JOINT Spine
    {
      OFFSET -0.0310711 10.7595 1.96963
      CHANNELS 3 Zrotation Xrotation Yrotation
      JOINT Spine1
      {
        OFFSET 19.9056 3.91189 0.764692
        CHANNELS 3 Zrotation Xrotation Yrotation
        JOINT Neck
        {
          OFFSET 25.9749 7.03908 -0.130764
          CHANNELS 3 Zrotation Xrotation Yrotation
          JOINT Head
          {
            OFFSET 9.52751 0.295786 -0.907742
            CHANNELS 3 Zrotation Xrotation Yrotation
            End Site
            {
              OFFSET 16.4037 0.713936 2.7358
            }
          }
        }
        JOINT LeftShoulder
        {
          OFFSET 17.7449 4.33886 11.7777
          CHANNELS 3 Zrotation Xrotation Yrotation
          JOINT LeftArm
          {
            OFFSET 0.911315 1.27913 9.80584
            CHANNELS 3 Zrotation Xrotation Yrotation
            JOINT LeftForeArm
            {
              OFFSET 28.6126 1.18197 -3.53199
              CHANNELS 3 Zrotation Xrotation Yrotation
              JOINT LeftHand
              {
                OFFSET 27.5088 0.0218783 0.327423
                CHANNELS 3 Zrotation Xrotation Yrotation
                End Site
                {
                  OFFSET 18.6038 -0.000155887 0.382096
                }
              }
            }
          }
        }
        JOINT RightShoulder
        {
          OFFSET 17.1009 2.89543 -12.2328
          CHANNELS 3 Zrotation Xrotation Yrotation
          JOINT RightArm
          {
            OFFSET 1.4228 0.178766 -10.211
            CHANNELS 3 Zrotation Xrotation Yrotation
            JOINT RightForeArm
            {
              OFFSET 28.733 1.87905 2.64907
              CHANNELS 3 Zrotation Xrotation Yrotation
              JOINT RightHand
              {
                OFFSET 27.4588 0.290562 -0.101845
                CHANNELS 3 Zrotation Xrotation Yrotation
                End Site
                {
                  OFFSET 17.8396 -0.255518 -0.000602873
                }
              }
            }
          }
        }
      }
    }
  }
  JOINT LeftUpLeg
  {
    OFFSET -5.61296 -2.22332 -10.2353
    CHANNELS 3 Zrotation Xrotation Yrotation
    JOINT LeftLeg
    {
      OFFSET 2.56703 -44.7417 -7.93097
      CHANNELS 3 Zrotation Xrotation Yrotation
      JOINT LeftFoot
      {
        OFFSET 3.16933 -46.5642 -3.96578
        CHANNELS 3 Zrotation Xrotation Yrotation
        JOINT LeftToeBase
        {
          OFFSET 0.346054 -6.02161 12.8035
          CHANNELS 3 Zrotation Xrotation Yrotation
          End Site
          {
            OFFSET 0.134235 -1.35082 5.13018
          }
        }
      }
    }
  }
  JOINT RightUpLeg
  {
    OFFSET -5.7928 -1.72406 10.6446
    CHANNELS 3 Zrotation Xrotation Yrotation
    JOINT RightLeg
    {
      OFFSET -2.57161 -44.7178 -7.85259
      CHANNELS 3 Zrotation Xrotation Yrotation
      JOINT RightFoot
      {
        OFFSET -3.10148 -46.5936 -4.03391
        CHANNELS 3 Zrotation Xrotation Yrotation
        JOINT RightToeBase
        {
          OFFSET -0.0828122 -6.13587 12.8035
          CHANNELS 3 Zrotation Xrotation Yrotation
          End Site
          {
            OFFSET -0.131328 -1.35082 5.13018
          }
        }
      }
    }
  }
}
MOTION
Frames:	10
Frame Time:	0.0333333
-256.497 89.8031 -270.571 80.271 -35.836 -8.27933 -70.1915 0 88.8779 120.367 65.0117 -42.6445 18.8032 15.759 3.45391 -157.771 17.0252 171.57 -150.258 53.6997 166.254 2.53815 0.640584 -25.2689 -62.528 44.1454 -93.9901 0.0250279 26.0242 -14.2999 -3.65534 0.317725 -8.86451 0.504302 -2.3177 27.6158 -85.3954 -54.2412 64.9688 10.9413 -6.56339 52.6723 9.83287 0.341634 3.87467 -31.8734 -8.59885 90.415 -11.2797 72.8931 1.45005 10.52 11.7454 -1.59919 -10.6319 -43.5972 7.41995 -35.8686 4.98903 90.3617 168.155 67.5507 -169.073 -7.18881 -7.10561 1.10596 5.34992 1.45063 -15.1124 
-243.449 90.0501 -262.018 80.1896 -38.4805 -7.89663 -70.1915 0 88.8779 123.623 63.8848 -42.3963 17.2945 16.356 2.87728 -156.494 16.1956 172.845 -148.218 52.4266 165.919 2.49212 -0.665601 -26.8261 -54.9665 42.2154 -100.032 1.4743 19.9927 -16.2701 -5.42341 0.449427 -8.14327 0.437018 -1.73306 29.2689 -89.8402 -51.8677 57.3958 9.3124 -5.73178 50.1981 10.4736 0.434118 4.66998 -40.1904 -6.74629 91.9419 -19.588 78.5445 6.27299 8.08715 9.65774 -1.06716 -11.5521 -47.1954 7.35893 -22.9795 3.61744 91.6056 161.789 76.4667 -159.784 -6.70104 -6.88 1.07365 6.36426 -6.2877 -13.106 
-232.036 90.712 -253.894 80.0863 -40.0686 -6.28621 -70.1915 0 88.8779 127.409 62.8688 -41.9186 16.7136 16.9752 2.34128 -155.268 16.1221 172.591 -144.963 51.3009 162.69 2.4349 -0.379707 -25.6818 -53.6625 41.291 -105.054 3.08676 17.835 -17.5609 -5.64384 0.434385 -7.41338 0.335451 -1.12 28.5412 -87.3 -53.573 57.1215 5.57372 -2.6748 49.3786 7.47733 0.239641 3.6333 -43.3902 -1.48853 94.4552 -55.6974 84.7907 40.9924 4.267 5.12596 -0.448981 -7.18886 -28.1623 5.14312 -16.2168 3.03664 87.9849 21.1064 81.7711 -19.5836 -6.14629 -7.51363 1.05068 6.70563 -7.95854 -12.9284 
-220.716 91.8343 -244.799 80.1497 -42.0798 -5.14031 -70.1915 0 88.8779 131.559 63.227 -44.7665 15.2317 18.5035 5.00663 -152.826 16.6691 172.943 -142.842 51.4705 162.3 2.53205 -1.04822 -28.0163 -49.7922 38.8816 -107.218 7.40341 11.581 -24.1125 -3.22323 0.215905 -6.43576 0.37427 -1.41896 27.6411 -80.6927 -52.8655 62.3345 6.32028 -3.28581 49.6673 7.4205 0.310374 4.85632 -44.289 1.80257 93.5566 -114.506 84.8662 98.3878 1.58076 5.15498 -0.00544742 -4.15136 -7.47559 13.4966 -18.5312 4.19087 83.438 3.29002 57.3531 -0.825311 -3.24296 -0.94969 0.602746 0.48686 -0.792221 -0.621245 
-209.315 90.8642 -236.478 82.6769 -37.8684 -2.17712 -70.1915 0 88.8779 130.195 61.051 -41.0119 18.4453 16.022 3.03309 -153.19 16.2743 171.305 -145.311 51.7637 163.467 2.43141 0.246923 -24.6981 -57.4378 39.4682 -103.753 12.8758 15.8307 -34.4158 -2.01167 0.104288 -4.72735 0.218475 -0.363771 29.248 -76.2072 -51.6874 69.7091 4.98714 -2.16958 49.4845 7.46496 0.416618 6.59538 -40.8225 -3.65145 86.3076 -150.887 81.6049 147.644 3.05131 9.56207 -0.0501033 -6.33579 -23.4987 14.6666 -21.5618 -2.36634 72.6265 2.37453 49.2167 0.587861 -0.231654 2.78921 0.00318104 -2.74041 0.683894 6.20823 
-198.243 87.8896 -226.975 84.7694 -36.7527 -0.277163 -70.1915 0 88.8779 132.21 61.758 -41.6547 18.3462 17.0892 2.48257 -150.666 17.9999 169.203 -145.436 54.0297 163.999 2.20037 -0.782035 -23.555 -61.7546 36.8957 -101.111 18.0056 16.4205 -44.8962 -3.79914 0.198508 -4.51184 0.319212 -0.998459 29.1352 -75.2423 -50.8338 73.6484 3.82778 -1.16596 50.8515 8.27302 0.360199 5.01806 -33.4983 -4.95309 82.5977 -162.417 76.3553 163.114 5.34609 8.66665 -0.536554 -7.34619 -31.0688 14.9538 -22.4985 -2.33625 69.8821 4.60962 59.2627 2.85397 -5.81743 -1.12435 0.899027 3.33385 23.9103 -19.5491 
-187.166 84.6307 -216.877 87.6805 -41.6875 4.50598 -70.1915 0 88.8779 141.123 63.307 -46.2665 18.7222 20.8989 1.57504 -150.957 20.1296 171.134 -148.088 57.1128 167.364 2.33868 -1.28585 -26.0722 -66.2819 31.1612 -100.425 20.6244 14.2596 -53.4938 -5.58047 0.274936 -4.06114 0.300286 -0.932516 26.6358 -75.8226 -49.6489 79.5158 8.62613 -4.86552 52.1194 9.23831 0.238321 2.79749 -25.4056 1.6697 79.9516 -163.238 74.8937 162.191 6.12093 5.02795 -0.755332 -8.009 -34.8093 13.44 -23.637 7.99621 73.6515 11.2023 74.8881 -6.92908 -6.11731 -2.40461 0.955807 9.21585 -4.09565 -23.4122 
-176.668 83.4397 -207.381 86.5287 -45.5663 5.03476 -70.1915 0 88.8779 142.69 65.3627 -46.7962 19.3995 22.569 0.250202 -150.612 20.2059 170.808 -145.742 56.6904 165.822 2.63451 -0.492041 -28.164 -74.2747 28.2392 -101.192 24.6076 14.002 -59.5623 -7.69004 0.262746 -2.21313 0.0468014 0.963106 26.2977 -73.6137 -45.4979 91.8505 10.8893 -6.76687 51.5246 2.1598 0.0130126 0.576087 -15.4862 6.1144 78.1786 -145.94 82.8962 142.841 6.67918 4.54193 -0.85333 -8.67567 -37.3981 11.3713 -25.4781 14.5791 76.9302 43.0937 84.794 -37.6377 -5.77104 -4.62978 0.96794 10.2125 -15.3652 -20.1843 
-167.044 84.1413 -199.641 87.4536 -43.4892 0.343691 -70.1915 0 88.8779 140.524 65.0126 -50.9596 17.9072 22.289 -0.389469 -147.929 20.1781 168.938 -147.614 57.3329 166.916 2.58805 -0.943154 -28.4867 -78.5928 27.7107 -104.729 35.0799 17.3434 -65.0607 -24.7529 2.01517 -7.52581 0.0162803 1.43669 24.4528 -73.5092 -44.9765 99.0265 12.4127 -7.6211 53.0108 10.3896 0.368702 3.94882 -14.0804 1.15813 82.4009 -11.7873 75.5507 7.59495 4.35678 6.48249 -0.417885 -7.73836 -33.8852 14.9473 -32.9325 6.97425 79.2197 124.728 85.1138 -117.733 -6.82819 -3.81578 1.04455 11.3746 -23.4255 -17.4484 
-157.135 84.7908 -192.618 87.8492 -41.2581 -5.08993 -70.1915 0 88.8779 138.057 64.7661 -52.9978 17.4351 22.0356 -3.52128 -143.163 19.8567 165.496 -146.981 57.7562 168.256 2.30891 -2.51414 -28.2115 -78.7923 25.8624 -111.316 36.8984 15.9425 -68.1921 -12.4766 0.240754 -0.450599 0.0022513 1.53262 24.606 -77.939 -46.4197 97.0309 14.9754 -7.64857 59.6158 10.5981 0.563472 6.08591 -16.3575 -5.54153 84.7295 -4.21287 57.0774 -3.59867 0.832366 11.4364 0.518432 -5.6632 -18.9667 13.3112 -36.1627 -2.52513 82.986 158.096 78.6206 -154.308 -6.47353 -6.24242 1.04982 3.12877 -3.6912 -5.39368 
